<svg height="512" viewBox="0 0 64 64" width="512" xmlns="http://www.w3.org/2000/svg"><g id="Flat"><g id="Color_copy" data-name="Color copy"><g><g><rect fill="#c4f236" height="8" rx="4" transform="matrix(.94 -.342 .342 .94 -14.594 15.981)" width="30" x="23.019" y="45.375"/><path d="m50.724 45.371-20.674 7.529a4 4 0 0 1 -5.126-2.391c-.025-.067-.031-.134-.052-.2a3.994 3.994 0 0 0 4.178 6.591l20.674-7.525a3.991 3.991 0 0 0 2.442-4.925 3.965 3.965 0 0 1 -1.442.921z" fill="#a1d51c"/><path d="m61 45.267-3.759 1.368a4 4 0 0 1 -5.127-2.391 4 4 0 0 1 2.391-5.126l3.759-1.368-1.451 4.784z" fill="#c4f236"/><path d="m17.774 61 3.759-1.368a4 4 0 0 0 2.391-5.127 4 4 0 0 0 -5.124-2.391l-3.759 1.368 4.187 2.733z" fill="#a1d51c"/><g fill="#f8664f"><path d="m30.713 56.29 1.6-9.1-4.341 1.58-1.442 8.182a3.967 3.967 0 0 0 2.52-.052z"/><path d="m36.658 45.613-1.604 9.098 4.34-1.58 1.604-9.097z"/><path d="m46.988 41.854-1.65.6-1.6 9.1 4.341-1.579 1.437-8.175a3.964 3.964 0 0 0 -2.528.054z"/></g><path d="m57.241 43.635a3.992 3.992 0 0 1 -5.062-2.256 3.985 3.985 0 0 0 5.062 5.256l3.759-1.368-2.951-1.926z" fill="#a1d51c"/><path d="m23.924 54.505a3.99 3.99 0 0 0 -4.106-2.6 3.969 3.969 0 0 1 -1.285 6.728l-.046.016-.713 2.351 3.759-1.368a4 4 0 0 0 2.391-5.127z" fill="#7ab92d"/><path d="m27.257 52.856-.722 4.1a3.967 3.967 0 0 0 2.515-.056l1.663-.606.686-3.885-1.349.491a3.962 3.962 0 0 1 -2.793-.044z" fill="#cc5144"/><path d="m35.054 54.711 4.34-1.58.685-3.885-4.34 1.579z" fill="#cc5144"/><path d="m43.734 51.551 4.341-1.579.685-3.886-4.341 1.58z" fill="#cc5144"/></g><g><path d="m23.715 18.464 4.929-7.464a17.886 17.886 0 0 1 13.856-8l-3.33 4.232 6.83 1.83a5.009 5.009 0 0 1 -5.321 3.689 15.486 15.486 0 0 0 -8.261 1.484z" fill="#f89c8d"/><path d="m33.254 7.541a6.506 6.506 0 0 1 -.446-.969 17.9 17.9 0 0 0 -4.164 4.428l-4.929 7.464 8.7-4.229a15.486 15.486 0 0 1 8.261-1.484 5 5 0 0 0 5.16-3.241c-4.767 2.708-10.385 1.836-12.582-1.969z" fill="#f8664f"/><path d="m26.646 15.541-4.928 7.464a17.886 17.886 0 0 1 -13.856 8l3.33-4.232-6.83-1.83a5.008 5.008 0 0 1 5.321-3.689 15.483 15.483 0 0 0 8.26-1.485z" fill="#f8664f"/><path d="m17.943 19.769a15.411 15.411 0 0 1 -2.419.925 6.927 6.927 0 0 0 .73 4.847c.106.184.228.355.349.525-3.106.15-5.936-1.078-7.349-3.525a6.519 6.519 0 0 1 -.554-1.279 5 5 0 0 0 -4.338 3.681l6.83 1.83-3.33 4.232a17.886 17.886 0 0 0 13.856-8l4.928-7.464z" fill="#cc5144"/><ellipse cx="24.914" cy="16.541" fill="#f89c8d" rx="10" ry="8" transform="matrix(.866 -.5 .5 .866 -4.933 14.673)"/><path d="m25 12a2.963 2.963 0 0 0 2.837-3.933 11.183 11.183 0 0 0 -5.831.991 3 3 0 0 0 2.994 2.942z" fill="#f9e109"/><path d="m30.914 17.469c-4.783 2.761-10.451 1.9-12.66-1.928a6.589 6.589 0 0 1 -.855-2.869c-2.125 2.761-2.694 6.186-1.145 8.869 2.209 3.826 7.877 4.689 12.66 1.928 3.67-2.118 5.743-5.753 5.516-9.059a12 12 0 0 1 -3.516 3.059z" fill="#f8664f"/><path d="m31.73 21.231a3.086 3.086 0 1 0 -1.867 1.628 11.982 11.982 0 0 0 1.867-1.628z" fill="#f9e109"/><path d="m18 19a3 3 0 0 0 0-6 2.967 2.967 0 0 0 -.96.171 9.216 9.216 0 0 0 -1.629 4.32 2.987 2.987 0 0 0 2.589 1.509z" fill="#f9e109"/><g fill="#fcbc04"><path d="m26 20a2.96 2.96 0 0 0 3.863 2.859 11.982 11.982 0 0 0 1.867-1.628 2.972 2.972 0 0 0 -.993-3.669 11.908 11.908 0 0 1 -4.561 1.463 2.976 2.976 0 0 0 -.176.975z"/><path d="m18.254 15.541a6.552 6.552 0 0 1 -.818-2.475 3.653 3.653 0 0 0 -.4.1 9.216 9.216 0 0 0 -1.629 4.32 2.976 2.976 0 0 0 4.991.29 6.61 6.61 0 0 1 -2.144-2.235z"/></g></g><g><path d="m17.8 23.4-4.8 3.6v10l4.8 3.6a12 12 0 0 0 7.2 2.4h14a12 12 0 0 0 7.2-2.4l4.8-3.6v-10l-4.8-3.6a12 12 0 0 0 -7.2-2.4h-14a12 12 0 0 0 -7.2 2.4z" fill="#aae1f9"/><path d="m49.2 33.6a12 12 0 0 1 -7.2 2.4h-14a11.966 11.966 0 0 1 -11.958-11.282l-3.042 2.282v10l4.8 3.6a12 12 0 0 0 7.2 2.4h14a12 12 0 0 0 7.2-2.4l4.8-3.6v-4.75z" fill="#57b7eb"/><path d="m3 40 10-3v-10l-10-3 3 5-3 3 3 3z" fill="#fcbc04"/><path d="m61 40-10-3v-10l10-3-3 5 3 3-3 3z" fill="#aae1f9"/><path d="m20 33.5a6.71 6.71 0 0 1 0-6 6.7 6.7 0 0 0 .214-5.5 11.949 11.949 0 0 0 -2.414 1.4l-4.8 3.6v10l4.8 3.6a12.034 12.034 0 0 0 1.561.989 6.685 6.685 0 0 1 .639-2.089 6.71 6.71 0 0 0 0-6z" fill="#f9e109"/><path d="m44 33.5a6.71 6.71 0 0 1 0-6 6.7 6.7 0 0 0 .318-5.248 11.979 11.979 0 0 0 -5.318-1.252h-1.214c.067.168.132.337.214.5a6.71 6.71 0 0 1 0 6 6.71 6.71 0 0 0 0 6 6.71 6.71 0 0 1 0 6 6.688 6.688 0 0 0 -.679 3.5h1.679a11.988 11.988 0 0 0 4.31-.811 6.7 6.7 0 0 1 .69-2.689 6.71 6.71 0 0 0 0-6z" fill="#f9e109"/><path d="m32 39.5a6.71 6.71 0 0 0 0-6 6.71 6.71 0 0 1 0-6 6.71 6.71 0 0 0 0-6c-.082-.163-.147-.332-.214-.5h-6c.067.168.132.337.214.5a6.71 6.71 0 0 1 0 6 6.71 6.71 0 0 0 0 6 6.71 6.71 0 0 1 0 6 6.688 6.688 0 0 0 -.679 3.5h6a6.688 6.688 0 0 1 .679-3.5z" fill="#f9e109"/><g fill="#fcbc04"><path d="m13 27v10l4.8 3.6a12.034 12.034 0 0 0 1.561.989 6.685 6.685 0 0 1 .639-2.089 6.71 6.71 0 0 0 0-6 6.67 6.67 0 0 1 -.364-.9 11.984 11.984 0 0 1 -3.594-7.878z"/><path d="m38.679 36a6.688 6.688 0 0 1 -.679 3.5 6.688 6.688 0 0 0 -.679 3.5h1.679a11.988 11.988 0 0 0 4.31-.811 6.7 6.7 0 0 1 .69-2.689 6.7 6.7 0 0 0 .658-3.8 12.005 12.005 0 0 1 -2.658.3z"/><path d="m26.675 35.917a6.708 6.708 0 0 1 -.675 3.583 6.688 6.688 0 0 0 -.679 3.5h6a6.688 6.688 0 0 1 .679-3.5 6.688 6.688 0 0 0 .679-3.5h-4.679a11.931 11.931 0 0 1 -1.325-.083z"/></g><path d="m52.268 26.62-1.268.38v10l10 3-2.821-4.7a13.434 13.434 0 0 1 -5.911-8.68z" fill="#57b7eb"/><path d="m11.732 26.62 1.268.38v10l-10 3 2.821-4.7a13.434 13.434 0 0 0 5.911-8.68z" fill="#e59730"/></g><g><circle cx="43" cy="58" fill="#f8664f" r="2"/><circle cx="8" cy="15" fill="#f9e109" r="2"/><circle cx="16" cy="6" fill="#c4f236" r="2"/><circle cx="55" cy="9" fill="#f9e109" r="2"/><circle cx="12" cy="47" fill="#c4f236" r="3"/><circle cx="54" cy="56" fill="#f9e109" r="3"/><circle cx="50" cy="17" fill="#f8664f" r="3"/><path d="m44 59a1.992 1.992 0 0 1 -1.82-2.82 2 2 0 1 0 2.64 2.64 1.99 1.99 0 0 1 -.82.18z" fill="#cc5144"/><path d="m8 14a1.972 1.972 0 0 1 .263-.973 1.905 1.905 0 0 0 -.263-.027 2 2 0 1 0 1.737 2.973 1.993 1.993 0 0 1 -1.737-1.973z" fill="#fcbc04"/><path d="m16 5a1.972 1.972 0 0 1 .263-.973 1.905 1.905 0 0 0 -.263-.027 2 2 0 1 0 1.737 2.973 1.993 1.993 0 0 1 -1.737-1.973z" fill="#a1d51c"/><path d="m56 10a1.992 1.992 0 0 1 -1.82-2.82 2 2 0 1 0 2.64 2.64 1.99 1.99 0 0 1 -.82.18z" fill="#fcbc04"/><path d="m14 48a2.96 2.96 0 0 1 -2.86-3.86 2.992 2.992 0 1 0 3.72 3.72 2.983 2.983 0 0 1 -.86.14z" fill="#a1d51c"/><path d="m56 57a2.96 2.96 0 0 1 -2.86-3.86 2.992 2.992 0 1 0 3.72 3.72 2.983 2.983 0 0 1 -.86.14z" fill="#fcbc04"/><path d="m52 18a2.96 2.96 0 0 1 -2.86-3.86 2.992 2.992 0 1 0 3.72 3.72 2.983 2.983 0 0 1 -.86.14z" fill="#cc5144"/></g><g><circle cx="8" cy="56" fill="#f89c8d" r="1"/><circle cx="57" cy="18" fill="#c4f236" r="1"/><circle cx="59" cy="51" fill="#57b7eb" r="1"/><circle cx="48" cy="5" fill="#57b7eb" r="1"/><circle cx="8" cy="8" fill="#f89c8d" r="1"/></g></g></g></g></svg>