<svg id="evgurter4hug1" xmlns="http://www.w3.org/2000/svg" xmlns:xlink="http://www.w3.org/1999/xlink" viewBox="0 0 64 64" shape-rendering="geometricPrecision" text-rendering="geometricPrecision"><g id="evgurter4hug2"><g id="evgurter4hug3"><g id="evgurter4hug4"><g id="evgurter4hug5"><rect id="evgurter4hug6" width="30" height="8" rx="4" ry="0" transform="matrix(0.93999999761581 -0.34200000762939 0.34200000762939 0.93999999761581 22.56211042863131 50.76100166279078)" fill="rgb(196,242,54)" stroke="none" stroke-width="1"/><path id="evgurter4hug7" d="M50.724000,45.371000L30.050000,52.900000C27.974250,53.654979,25.679449,52.584579,24.924000,50.509000C24.899000,50.442000,24.893000,50.375000,24.872000,50.309000C23.537850,51.629420,23.303213,53.700705,24.308189,55.286103C25.313164,56.871501,27.286530,57.543145,29.050000,56.900000L49.724000,49.375000C51.719075,48.644946,52.792557,46.479958,52.166000,44.450000C51.758091,44.858289,51.265968,45.172606,50.724000,45.371000Z" fill="rgb(161,213,28)" stroke="none" stroke-width="1"/><path id="evgurter4hug8" d="M61,45.267000L57.241000,46.635000C56.244054,46.997868,55.143788,46.949813,54.182275,46.501407C53.220762,46.053001,52.476775,45.240980,52.114000,44.244000C51.359021,42.168250,52.429421,39.873449,54.505000,39.118000L58.264000,37.750000L56.813000,42.534000Z" fill="rgb(196,242,54)" stroke="none" stroke-width="1"/><path id="evgurter4hug9" d="M17.774000,61L21.533000,59.632000C22.529980,59.269225,23.342001,58.525238,23.790407,57.563725C24.238813,56.602212,24.286868,55.501946,23.924000,54.505000C23.168539,52.430490,20.875164,51.360338,18.800000,52.114000L15.041000,53.482000L19.228000,56.215000Z" fill="rgb(161,213,28)" stroke="none" stroke-width="1"/><g id="evgurter4hug10"><path id="evgurter4hug11" d="M30.713000,56.290000L32.313000,47.190000L27.972000,48.770000L26.530000,56.952000C27.353316,57.209082,28.237990,57.190826,29.050000,56.900000Z" fill="rgb(248,102,79)" stroke="none" stroke-width="1"/><path id="evgurter4hug12" d="M36.658000,45.613000L35.054000,54.711000L39.394000,53.131000L40.998000,44.034000Z" fill="rgb(248,102,79)" stroke="none" stroke-width="1"/><path id="evgurter4hug13" d="M46.988000,41.854000L45.338000,42.454000L43.738000,51.554000L48.079000,49.975000L49.516000,41.800000C48.690033,41.541549,47.802177,41.560514,46.988000,41.854000Z" fill="rgb(248,102,79)" stroke="none" stroke-width="1"/></g><path id="evgurter4hug14" d="M57.241000,43.635000C55.221507,44.367521,52.984457,43.370527,52.179000,41.379000C51.577325,42.841222,51.897075,44.520863,52.993917,45.659742C54.090760,46.798620,55.757194,47.181284,57.241000,46.635000L61,45.267000L58.049000,43.341000Z" fill="rgb(161,213,28)" stroke="none" stroke-width="1"/><path id="evgurter4hug15" d="M23.924000,54.505000C23.301911,52.808612,21.617489,51.742002,19.818000,51.905000C20.878742,52.832639,21.368098,54.253155,21.103740,55.637280C20.839382,57.021405,19.860951,58.161584,18.533000,58.633000L18.487000,58.649000L17.774000,61L21.533000,59.632000C22.529980,59.269225,23.342001,58.525238,23.790407,57.563725C24.238813,56.602212,24.286868,55.501946,23.924000,54.505000Z" fill="rgb(122,185,45)" stroke="none" stroke-width="1"/><path id="evgurter4hug16" d="M27.257000,52.856000L26.535000,56.956000C27.357208,57.210676,28.239943,57.191021,29.050000,56.900000L30.713000,56.294000L31.399000,52.409000L30.050000,52.900000C29.144532,53.224897,28.151785,53.209257,27.257000,52.856000Z" fill="rgb(204,81,68)" stroke="none" stroke-width="1"/><path id="evgurter4hug17" d="M35.054000,54.711000L39.394000,53.131000L40.079000,49.246000L35.739000,50.825000Z" fill="rgb(204,81,68)" stroke="none" stroke-width="1"/><path id="evgurter4hug18" d="M43.734000,51.551000L48.075000,49.972000L48.760000,46.086000L44.419000,47.666000Z" fill="rgb(204,81,68)" stroke="none" stroke-width="1"/></g><g id="evgurter4hug19"><path id="evgurter4hug20" d="M23.715000,18.464000L28.644000,11C31.746010,6.301050,36.879594,3.337087,42.500000,3L39.170000,7.232000L46,9.062000C45.366218,11.426801,43.115861,12.986953,40.679000,12.751000C37.841228,12.475780,34.982557,12.989309,32.418000,14.235000Z" fill="rgb(248,156,141)" stroke="none" stroke-width="1"/><path id="evgurter4hug21" d="M33.254000,7.541000C33.079060,7.230753,32.929892,6.906664,32.808000,6.572000C31.177714,7.799821,29.769414,9.297407,28.644000,11L23.715000,18.464000L32.415000,14.235000C34.979557,12.989309,37.838228,12.475780,40.676000,12.751000C42.931658,12.964577,45.048999,11.634673,45.836000,9.510000C41.069000,12.218000,35.451000,11.346000,33.254000,7.541000Z" fill="rgb(248,102,79)" stroke="none" stroke-width="1"/><path id="evgurter4hug22" d="M26.646000,15.541000L21.718000,23.005000C18.615990,27.703950,13.482406,30.667913,7.862000,31.005000L11.192000,26.773000L4.362000,24.943000C4.995421,22.577945,7.246028,21.017620,9.683000,21.254000C12.520541,21.528880,15.378887,21.015001,17.943000,19.769000Z" fill="rgb(248,102,79)" stroke="none" stroke-width="1"/><path id="evgurter4hug23" d="M17.943000,19.769000C17.164049,20.144659,16.354859,20.454085,15.524000,20.694000C15.168459,22.344639,15.428057,24.068303,16.254000,25.541000C16.360000,25.725000,16.482000,25.896000,16.603000,26.066000C13.497000,26.216000,10.667000,24.988000,9.254000,22.541000C9.024156,22.135690,8.838428,21.706907,8.700000,21.262000C6.628818,21.466564,4.900959,22.932736,4.362000,24.943000L11.192000,26.773000L7.862000,31.005000C13.482406,30.667913,18.615990,27.703950,21.718000,23.005000L26.646000,15.541000Z" fill="rgb(204,81,68)" stroke="none" stroke-width="1"/><ellipse id="evgurter4hug24" rx="10" ry="8" transform="matrix(0.86599999666214 -0.50000000000000 0.50000000000000 0.86599999666214 24.91077138910252 16.82862094048181)" fill="rgb(248,156,141)" stroke="none" stroke-width="1"/><path id="evgurter4hug25" d="M25,12C25.965151,12.012169,26.875738,11.553459,27.440412,10.770638C28.005086,9.987817,28.153064,8.979014,27.837000,8.067000C25.839619,7.868036,23.825504,8.210342,22.006000,9.058000C22.037552,10.689829,23.367869,11.997041,25,12Z" fill="rgb(249,225,9)" stroke="none" stroke-width="1"/><path id="evgurter4hug26" d="M30.914000,17.469000C26.131000,20.230000,20.463000,19.369000,18.254000,15.541000C17.752644,14.662936,17.460094,13.681268,17.399000,12.672000C15.274000,15.433000,14.705000,18.858000,16.254000,21.541000C18.463000,25.367000,24.131000,26.230000,28.914000,23.469000C32.584000,21.351000,34.657000,17.716000,34.430000,14.410000C33.469169,15.649641,32.274645,16.688903,30.914000,17.469000Z" fill="rgb(248,102,79)" stroke="none" stroke-width="1"/><path id="evgurter4hug27" d="M31.730000,21.231000C32.352991,19.910047,31.964677,18.333250,30.799518,17.452660C29.634358,16.572070,28.011443,16.628846,26.910669,17.588706C25.809895,18.548567,25.532721,20.148645,26.246500,21.422833C26.960278,22.697021,28.469536,23.296370,29.863000,22.859000C30.539907,22.382293,31.165583,21.836711,31.730000,21.231000Z" fill="rgb(249,225,9)" stroke="none" stroke-width="1"/><path id="evgurter4hug28" d="M18,19C19.656854,19,21,17.656854,21,16C21,14.343146,19.656854,13,18,13C17.672759,13.003666,17.348379,13.061446,17.040000,13.171000C16.139255,14.449459,15.578664,15.936109,15.411000,17.491000C15.941010,18.421825,16.928860,18.997594,18,19Z" fill="rgb(249,225,9)" stroke="none" stroke-width="1"/><g id="evgurter4hug29"><path id="evgurter4hug30" d="M26,20C25.987068,20.952394,26.433232,21.852823,27.198841,22.419449C27.964449,22.986074,28.955950,23.149659,29.863000,22.859000C30.539907,22.382293,31.165583,21.836711,31.730000,21.231000C32.326547,19.928517,31.909024,18.385827,30.737000,17.562000C29.331452,18.353560,27.779732,18.851294,26.176000,19.025000C26.063267,19.337883,26.003776,19.667449,26,20Z" fill="rgb(252,188,4)" stroke="none" stroke-width="1"/><path id="evgurter4hug31" d="M18.254000,15.541000C17.818318,14.779114,17.540148,13.937460,17.436000,13.066000C17.300890,13.091776,17.167344,13.125163,17.036000,13.166000C16.135255,14.444459,15.574664,15.931109,15.407000,17.486000C15.905067,18.364929,16.815010,18.931168,17.823549,18.989768C18.832089,19.048369,19.801489,18.591329,20.398000,17.776000C19.516422,17.211302,18.781586,16.445277,18.254000,15.541000Z" fill="rgb(252,188,4)" stroke="none" stroke-width="1"/></g></g><g id="evgurter4hug32"><path id="evgurter4hug33" d="M17.800000,23.400000L13,27L13,37L17.800000,40.600000C19.877154,42.157866,22.403557,43,25,43L39,43C41.596443,43,44.122846,42.157866,46.200000,40.600000L51,37L51,27L46.200000,23.400000C44.122846,21.842134,41.596443,21,39,21L25,21C22.403557,21,19.877154,21.842134,17.800000,23.400000Z" fill="rgb(170,225,249)" stroke="none" stroke-width="1"/><path id="evgurter4hug34" d="M49.200000,33.600000C47.122846,35.157866,44.596443,36,42,36L28,36C21.652605,36.006135,16.404827,31.055019,16.042000,24.718000L13,27L13,37L17.800000,40.600000C19.877154,42.157866,22.403557,43,25,43L39,43C41.596443,43,44.122846,42.157866,46.200000,40.600000L51,37L51,32.250000Z" fill="rgb(87,183,235)" stroke="none" stroke-width="1"/><path id="evgurter4hug35" d="M3,40L13,37L13,27L3,24L6,29L3,32L6,35Z" fill="rgb(252,188,4)" stroke="none" stroke-width="1"/><path id="evgurter4hug36" d="M61,40L51,37L51,27L61,24L58,29L61,32L58,35Z" fill="rgb(170,225,249)" stroke="none" stroke-width="1"/><path id="evgurter4hug37" d="M20,33.500000C19.056011,31.611389,19.056011,29.388611,20,27.500000C20.855862,25.781956,20.933782,23.779351,20.214000,22C19.357415,22.370781,18.547225,22.840651,17.800000,23.400000L13,27L13,37L17.800000,40.600000C18.294215,40.969189,18.816087,41.299831,19.361000,41.589000C19.458014,40.862339,19.673896,40.156585,20,39.500000C20.943989,37.611389,20.943989,35.388611,20,33.500000Z" fill="rgb(249,225,9)" stroke="none" stroke-width="1"/><path id="evgurter4hug38" d="M44,33.500000C43.056011,31.611389,43.056011,29.388611,44,27.500000C44.816610,25.867062,44.931465,23.971593,44.318000,22.252000C42.665438,21.430602,40.845441,21.002126,39,21L37.786000,21C37.853000,21.168000,37.918000,21.337000,38,21.500000C38.943989,23.388611,38.943989,25.611389,38,27.500000C37.056011,29.388611,37.056011,31.611389,38,33.500000C38.943989,35.388611,38.943989,37.611389,38,39.500000C37.461143,40.583737,37.226471,41.793387,37.321000,43L39,43C40.474313,42.996994,41.935425,42.722061,43.310000,42.189000C43.349745,41.254324,43.584790,40.338331,44,39.500000C44.943989,37.611389,44.943989,35.388611,44,33.500000Z" fill="rgb(249,225,9)" stroke="none" stroke-width="1"/><path id="evgurter4hug39" d="M32,39.500000C32.943989,37.611389,32.943989,35.388611,32,33.500000C31.056011,31.611389,31.056011,29.388611,32,27.500000C32.943989,25.611389,32.943989,23.388611,32,21.500000C31.918000,21.337000,31.853000,21.168000,31.786000,21L25.786000,21C25.853000,21.168000,25.918000,21.337000,26,21.500000C26.943989,23.388611,26.943989,25.611389,26,27.500000C25.056011,29.388611,25.056011,31.611389,26,33.500000C26.943989,35.388611,26.943989,37.611389,26,39.500000C25.461143,40.583737,25.226471,41.793387,25.321000,43L31.321000,43C31.226471,41.793387,31.461143,40.583737,32,39.500000Z" fill="rgb(249,225,9)" stroke="none" stroke-width="1"/><g id="evgurter4hug40"><path id="evgurter4hug41" d="M13,27L13,37L17.800000,40.600000C18.294215,40.969189,18.816087,41.299831,19.361000,41.589000C19.458014,40.862339,19.673896,40.156585,20,39.500000C20.943989,37.611389,20.943989,35.388611,20,33.500000C19.856966,33.209240,19.735311,32.908444,19.636000,32.600000C17.498000,30.513718,16.216257,27.704155,16.042000,24.722000Z" fill="rgb(252,188,4)" stroke="none" stroke-width="1"/><path id="evgurter4hug42" d="M38.679000,36C38.773529,37.206613,38.538857,38.416263,38,39.500000C37.461143,40.583737,37.226471,41.793387,37.321000,43L39,43C40.474313,42.996994,41.935425,42.722061,43.310000,42.189000C43.349745,41.254324,43.584790,40.338331,44,39.500000C44.587021,38.325198,44.815835,37.003780,44.658000,35.700000C43.785942,35.898702,42.894409,35.999327,42,36Z" fill="rgb(252,188,4)" stroke="none" stroke-width="1"/><path id="evgurter4hug43" d="M26.675000,35.917000C26.785121,37.150747,26.551490,38.390894,26,39.500000C25.461143,40.583737,25.226471,41.793387,25.321000,43L31.321000,43C31.226471,41.793387,31.461143,40.583737,32,39.500000C32.538857,38.416263,32.773529,37.206613,32.679000,36L28,36C27.557135,35.996947,27.114784,35.969237,26.675000,35.917000Z" fill="rgb(252,188,4)" stroke="none" stroke-width="1"/></g><path id="evgurter4hug44" d="M52.268000,26.620000L51,27L51,37L61,40L58.179000,35.300000C55.112560,33.328531,52.978997,30.195504,52.268000,26.620000Z" fill="rgb(87,183,235)" stroke="none" stroke-width="1"/><path id="evgurter4hug45" d="M11.732000,26.620000L13,27L13,37L3,40L5.821000,35.300000C8.887440,33.328531,11.021003,30.195504,11.732000,26.620000Z" fill="rgb(229,151,48)" stroke="none" stroke-width="1"/></g><g id="evgurter4hug46"><g id="evgurter4hug47"><g id="evgurter4hug48"><g id="evgurter4hug49"><circle id="evgurter4hug50" r="2" transform="matrix(1 0 0 1 43.00356741000001 58)" fill="rgb(248,102,79)" stroke="none" stroke-width="1"/><path id="evgurter4hug51" d="M44,59C43.320539,59.002813,42.686507,58.659099,42.318057,58.088204C41.949608,57.517310,41.897565,56.797986,42.180000,56.180000C41.364432,56.542571,40.887817,57.401656,41.011869,58.285522C41.135921,59.169388,41.830612,59.864079,42.714478,59.988131C43.598344,60.112183,44.457429,59.635568,44.820000,58.820000C44.562577,58.937629,44.283023,58.998994,44,59Z" fill="rgb(204,81,68)" stroke="none" stroke-width="1"/></g></g></g><g id="evgurter4hug52"><circle id="evgurter4hug53" r="2" transform="matrix(1 0 0 1 8 15)" fill="rgb(249,225,9)" stroke="none" stroke-width="1"/><path id="evgurter4hug54" d="M8,14C8.001901,13.658360,8.092528,13.323075,8.263000,13.027000C8.176064,13.011920,8.088186,13.002898,8,13C7.024219,12.994952,6.187236,13.694804,6.019444,14.656064C5.851652,15.617323,6.402037,16.559347,7.321823,16.885180C8.241610,17.211012,9.262263,16.825525,9.737000,15.973000C8.744876,15.844499,8.001752,15.000409,8,14Z" fill="rgb(252,188,4)" stroke="none" stroke-width="1"/></g><g id="evgurter4hug55"><circle id="evgurter4hug56" r="2" transform="matrix(1 0 0 1 16 6)" fill="rgb(196,242,54)" stroke="none" stroke-width="1"/><path id="evgurter4hug57" d="M16,5C16.001901,4.658360,16.092528,4.323075,16.263000,4.027000C16.176064,4.011920,16.088186,4.002898,16,4C15.024219,3.994952,14.187236,4.694804,14.019444,5.656064C13.851652,6.617323,14.402037,7.559347,15.321823,7.885180C16.241610,8.211012,17.262263,7.825525,17.737000,6.973000C16.744876,6.844499,16.001752,6.000409,16,5Z" fill="rgb(161,213,28)" stroke="none" stroke-width="1"/></g><circle id="evgurter4hug58" r="2" transform="matrix(1 0 0 1 55 9)" fill="rgb(249,225,9)" stroke="none" stroke-width="1"/><g id="evgurter4hug59"><circle id="evgurter4hug60" r="3" transform="matrix(1 0 0 1 12 47)" fill="rgb(196,242,54)" stroke="none" stroke-width="1"/><path id="evgurter4hug61" d="M14,48C13.048154,48.012938,12.148172,47.567305,11.581460,46.802442C11.014748,46.037579,10.850473,45.046836,11.140000,44.140000C9.767469,44.547626,8.876092,45.870502,9.013660,47.295660C9.151229,48.720818,10.279182,49.848771,11.704340,49.986340C13.129498,50.123908,14.452374,49.232531,14.860000,47.860000C14.581731,47.948508,14.291974,47.995678,14,48Z" fill="rgb(161,213,28)" stroke="none" stroke-width="1"/></g><circle id="evgurter4hug62" r="3" transform="matrix(1 0 0 1 53.99999999500002 56.44430782999997)" fill="rgb(249,225,9)" stroke="none" stroke-width="1"/><g id="evgurter4hug63"><circle id="evgurter4hug64" r="3" transform="matrix(1 0 0 1 50 17)" fill="rgb(248,102,79)" stroke="none" stroke-width="1"/><path id="evgurter4hug65" d="M52,18C51.048154,18.012938,50.148172,17.567305,49.581460,16.802442C49.014748,16.037579,48.850473,15.046836,49.140000,14.140000C47.767469,14.547626,46.876092,15.870502,47.013660,17.295660C47.151229,18.720818,48.279182,19.848771,49.704340,19.986340C51.129498,20.123908,52.452374,19.232531,52.860000,17.860000C52.581731,17.948508,52.291974,17.995678,52,18Z" fill="rgb(204,81,68)" stroke="none" stroke-width="1"/></g><path id="evgurter4hug66" d="M56,10C55.320539,10.002813,54.686507,9.659099,54.318057,9.088204C53.949608,8.517310,53.897565,7.797986,54.180000,7.180000C53.364432,7.542571,52.887817,8.401656,53.011869,9.285522C53.135921,10.169388,53.830612,10.864079,54.714478,10.988131C55.598344,11.112183,56.457429,10.635568,56.820000,9.820000C56.562577,9.937629,56.283023,9.998994,56,10Z" fill="rgb(252,188,4)" stroke="none" stroke-width="1"/></g><g id="evgurter4hug67"><circle id="evgurter4hug68" r="1" transform="matrix(1 0 0 1 8 56)" fill="rgb(248,156,141)" stroke="none" stroke-width="1"/><circle id="evgurter4hug69" r="1" transform="matrix(1 0 0 1 57 18)" fill="rgb(196,242,54)" stroke="none" stroke-width="1"/><circle id="evgurter4hug70" r="1" transform="matrix(1 0 0 1 59 51)" fill="rgb(87,183,235)" stroke="none" stroke-width="1"/><circle id="evgurter4hug71" r="1" transform="matrix(1 0 0 1 48 3)" fill="rgb(87,183,235)" stroke="none" stroke-width="1"/><circle id="evgurter4hug72" r="1.184304" transform="matrix(1 0 0 1 5.81580385250000 4.81580385750000)" fill="rgb(248,156,141)" stroke="none" stroke-width="1"/></g></g></g></g><script><![CDATA[!function(t,n){"object"==typeof exports&&"undefined"!=typeof module?module.exports=n():"function"==typeof define&&define.amd?define(n):(t=t||self).__SVGATOR_PLAYER__=n()}(this,(function(){"use strict";function t(n){return(t="function"==typeof Symbol&&"symbol"==typeof Symbol.iterator?function(t){return typeof t}:function(t){return t&&"function"==typeof Symbol&&t.constructor===Symbol&&t!==Symbol.prototype?"symbol":typeof t})(n)}function n(t,n){if(!(t instanceof n))throw new TypeError("Cannot call a class as a function")}function r(t,n){for(var r=0;r<n.length;r++){var e=n[r];e.enumerable=e.enumerable||!1,e.configurable=!0,"value"in e&&(e.writable=!0),Object.defineProperty(t,e.key,e)}}function e(t,n,e){return n&&r(t.prototype,n),e&&r(t,e),t}var i=1e-5,u=Math.abs;function o(t){return t}function a(t,n,r){var e=1-r;return 3*r*e*(t*e+n*r)+r*r*r}function l(){var t=arguments.length>0&&void 0!==arguments[0]?arguments[0]:0,n=arguments.length>1&&void 0!==arguments[1]?arguments[1]:0,r=arguments.length>2&&void 0!==arguments[2]?arguments[2]:1,e=arguments.length>3&&void 0!==arguments[3]?arguments[3]:1;return t<0||t>1||r<0||r>1?null:u(t-n)<=i&&u(r-e)<=i?o:function(o){if(o<=0)return t>0?o*n/t:0===n&&r>0?o*e/r:0;if(o>=1)return r<1?1+(o-1)*(e-1)/(r-1):1===r&&t<1?1+(o-1)*(n-1)/(t-1):1;for(var l,f=0,s=1;f<s;){var c=a(t,r,l=(f+s)/2);if(u(o-c)<i)break;c<o?f=l:s=l}return a(n,e,l)}}function f(){return 1}function s(t){return 1===t?1:0}function c(){var t=arguments.length>0&&void 0!==arguments[0]?arguments[0]:1,n=arguments.length>1&&void 0!==arguments[1]?arguments[1]:0;if(1===t){if(0===n)return s;if(1===n)return f}var r=1/t;return function(t){return t>=1?1:(t+=n*r)-t%r}}function v(t){var n=arguments.length>1&&void 0!==arguments[1]?arguments[1]:2;if(Number.isInteger(t))return t;var r=Math.pow(10,n);return Math.round(t*r)/r}var h=Math.PI/180;function y(t,n,r){return t>=.5?r:n}function d(t,n,r){return 0===t||n===r?n:t*(r-n)+n}function g(t,n,r){var e=d(t,n,r);return e<=0?0:e}function m(t,n,r){return 0===t?n:1===t?r:{x:d(t,n.x,r.x),y:d(t,n.y,r.y)}}function p(t,n,r){return 0===t?n:1===t?r:{x:g(t,n.x,r.x),y:g(t,n.y,r.y)}}function b(t,n,r){var e=function(t,n,r){return Math.round(d(t,n,r))}(t,n,r);return e<=0?0:e>=255?255:e}function w(t,n,r){return 0===t?n:1===t?r:{r:b(t,n.r,r.r),g:b(t,n.g,r.g),b:b(t,n.b,r.b),a:d(t,null==n.a?1:n.a,null==r.a?1:r.a)}}function A(t,n,r){if(0===t)return n;if(1===t)return r;var e=n.length;if(e!==r.length)return y(t,n,r);for(var i=[],u=0;u<e;u++)i.push(w(t,n[u],r[u]));return i}function x(t,n,r){var e=n.length;if(e!==r.length)return y(t,n,r);for(var i=new Array(e),u=0;u<e;u++)i[u]=d(t,n[u],r[u]);return i}function k(t,n){for(var r=[],e=0;e<t;e++)r.push(n);return r}function S(t,n){if(--n<=0)return t;var r=(t=Object.assign([],t)).length;do{for(var e=0;e<r;e++)t.push(t[e])}while(--n>0);return t}var _=6,M=/\.0+$/g;function I(t){return Number.isInteger(t)?t+"":t.toFixed(_).replace(M,"")}function E(t){var n=arguments.length>1&&void 0!==arguments[1]?arguments[1]:" ";return t&&t.length?t.map(I).join(n):""}function F(t){return I(t.x)+","+I(t.y)}function B(t){return t?null==t.a||t.a>=1?"rgb("+t.r+","+t.g+","+t.b+")":"rgba("+t.r+","+t.g+","+t.b+","+t.a+")":"transparent"}var j={f:null,i:p,u:function(t,n){return function(r){var e=n(r);t.setAttribute("rx",I(e.x)),t.setAttribute("ry",I(e.y))}}},q={f:null,i:function(t,n,r){return 0===t?n:1===t?r:{width:g(t,n.width,r.width),height:g(t,n.height,r.height)}},u:function(t,n){return function(r){var e=n(r);t.setAttribute("width",I(e.width)),t.setAttribute("height",I(e.height))}}},P=Math.sin,O=Math.cos,z=Math.acos,L=Math.asin,C=Math.tan,R=Math.atan2,T=Math.PI/180,V=180/Math.PI,D=Math.sqrt,N=function(){function t(){var r=arguments.length>0&&void 0!==arguments[0]?arguments[0]:1,e=arguments.length>1&&void 0!==arguments[1]?arguments[1]:0,i=arguments.length>2&&void 0!==arguments[2]?arguments[2]:0,u=arguments.length>3&&void 0!==arguments[3]?arguments[3]:1,o=arguments.length>4&&void 0!==arguments[4]?arguments[4]:0,a=arguments.length>5&&void 0!==arguments[5]?arguments[5]:0;n(this,t),this.m=[r,e,i,u,o,a],this.i=null,this.w=null,this.s=null}return e(t,[{key:"point",value:function(t,n){var r=this.m;return{x:r[0]*t+r[2]*n+r[4],y:r[1]*t+r[3]*n+r[5]}}},{key:"translateSelf",value:function(){var t=arguments.length>0&&void 0!==arguments[0]?arguments[0]:0,n=arguments.length>1&&void 0!==arguments[1]?arguments[1]:0;if(!t&&!n)return this;var r=this.m;return r[4]+=r[0]*t+r[2]*n,r[5]+=r[1]*t+r[3]*n,this.w=this.s=this.i=null,this}},{key:"rotateSelf",value:function(){var t=arguments.length>0&&void 0!==arguments[0]?arguments[0]:0;if(t%=360){var n=P(t*=T),r=O(t),e=this.m,i=e[0],u=e[1];e[0]=i*r+e[2]*n,e[1]=u*r+e[3]*n,e[2]=e[2]*r-i*n,e[3]=e[3]*r-u*n,this.w=this.s=this.i=null}return this}},{key:"scaleSelf",value:function(){var t=arguments.length>0&&void 0!==arguments[0]?arguments[0]:1,n=arguments.length>1&&void 0!==arguments[1]?arguments[1]:1;if(1!==t||1!==n){var r=this.m;r[0]*=t,r[1]*=t,r[2]*=n,r[3]*=n,this.w=this.s=this.i=null}return this}},{key:"skewSelf",value:function(t,n){if(n%=360,(t%=360)||n){var r=this.m,e=r[0],i=r[1],u=r[2],o=r[3];t&&(t=C(t*T),r[2]+=e*t,r[3]+=i*t),n&&(n=C(n*T),r[0]+=u*n,r[1]+=o*n),this.w=this.s=this.i=null}return this}},{key:"resetSelf",value:function(){var t=arguments.length>0&&void 0!==arguments[0]?arguments[0]:1,n=arguments.length>1&&void 0!==arguments[1]?arguments[1]:0,r=arguments.length>2&&void 0!==arguments[2]?arguments[2]:0,e=arguments.length>3&&void 0!==arguments[3]?arguments[3]:1,i=arguments.length>4&&void 0!==arguments[4]?arguments[4]:0,u=arguments.length>5&&void 0!==arguments[5]?arguments[5]:0,o=this.m;return o[0]=t,o[1]=n,o[2]=r,o[3]=e,o[4]=i,o[5]=u,this.w=this.s=this.i=null,this}},{key:"recomposeSelf",value:function(){var t=arguments.length>0&&void 0!==arguments[0]?arguments[0]:null,n=arguments.length>1&&void 0!==arguments[1]?arguments[1]:null,r=arguments.length>2&&void 0!==arguments[2]?arguments[2]:null,e=arguments.length>3&&void 0!==arguments[3]?arguments[3]:null,i=arguments.length>4&&void 0!==arguments[4]?arguments[4]:null;return this.isIdentity||this.resetSelf(),t&&(t.x||t.y)&&this.translateSelf(t.x,t.y),n&&this.rotateSelf(n),r&&(r.x&&this.skewSelf(r.x,0),r.y&&this.skewSelf(0,r.y)),!e||1===e.x&&1===e.y||this.scaleSelf(e.x,e.y),i&&(i.x||i.y)&&this.translateSelf(i.x,i.y),this}},{key:"decompose",value:function(){var t=arguments.length>0&&void 0!==arguments[0]?arguments[0]:0,n=arguments.length>1&&void 0!==arguments[1]?arguments[1]:0,r=this.m,e=r[0]*r[0]+r[1]*r[1],i=[[r[0],r[1]],[r[2],r[3]]],u=D(e);if(0===u)return{origin:{x:r[4],y:r[5]},translate:{x:t,y:n},scale:{x:0,y:0},skew:{x:0,y:0},rotate:0};i[0][0]/=u,i[0][1]/=u;var o=r[0]*r[3]-r[1]*r[2]<0;o&&(u=-u);var a=i[0][0]*i[1][0]+i[0][1]*i[1][1];i[1][0]-=i[0][0]*a,i[1][1]-=i[0][1]*a;var l=D(i[1][0]*i[1][0]+i[1][1]*i[1][1]);if(0===l)return{origin:{x:r[4],y:r[5]},translate:{x:t,y:n},scale:{x:u,y:0},skew:{x:0,y:0},rotate:0};i[1][0]/=l,i[1][1]/=l,a/=l;var f=0;return i[1][1]<0?(f=z(i[1][1])*V,i[0][1]<0&&(f=360-f)):f=L(i[0][1])*V,o&&(f=-f),a=R(a,D(i[0][0]*i[0][0]+i[0][1]*i[0][1]))*V,{origin:{x:r[4],y:r[5]},translate:{x:t,y:n},scale:{x:u,y:l},skew:{x:a,y:0},rotate:f}}},{key:"toString",value:function(){return null===this.s&&(this.s="matrix("+this.m.map($).join(" ")+")"),this.s}},{key:"determinant",get:function(){var t=this.m;return t[0]*t[3]-t[1]*t[2]}},{key:"isIdentity",get:function(){if(null===this.i){var t=this.m;this.i=1===t[0]&&0===t[1]&&0===t[2]&&1===t[3]&&0===t[4]&&0===t[5]}return this.i}}]),t}(),G=/\.0+$/;function $(t){return Number.isInteger(t)?t:t.toFixed(14).replace(G,"")}Object.freeze({M:2,L:2,Z:0,H:1,V:1,C:6,Q:4,T:2,S:4,A:7});function H(t,n,r){return t+(n-t)*r}function Q(t,n,r){var e=arguments.length>3&&void 0!==arguments[3]&&arguments[3],i={x:H(t.x,n.x,r),y:H(t.y,n.y,r)};return e&&(i.a=function(t,n){return Math.atan2(n.y-t.y,n.x-t.x)}(t,n)),i}function U(t,n,r,e){var i=1-e;return i*i*t+2*i*e*n+e*e*r}function Y(t,n,r,e){return 2*(1-e)*(n-t)+2*e*(r-n)}function Z(t,n,r,e){var i=arguments.length>4&&void 0!==arguments[4]&&arguments[4],u={x:U(t.x,n.x,r.x,e),y:U(t.y,n.y,r.y,e)};return i&&(u.a=function(t,n,r,e){return Math.atan2(Y(t.y,n.y,r.y,e),Y(t.x,n.x,r.x,e))}(t,n,r,e)),u}function J(t,n,r,e,i){var u=i*i;return i*u*(e-t+3*(n-r))+3*u*(t+r-2*n)+3*i*(n-t)+t}function K(t,n,r,e,i){var u=1-i;return 3*(u*u*(n-t)+2*u*i*(r-n)+i*i*(e-r))}function W(t,n,r,e,i){var u=arguments.length>5&&void 0!==arguments[5]&&arguments[5],o={x:J(t.x,n.x,r.x,e.x,i),y:J(t.y,n.y,r.y,e.y,i)};return u&&(o.a=function(t,n,r,e,i){return Math.atan2(K(t.y,n.y,r.y,e.y,i),K(t.x,n.x,r.x,e.x,i))}(t,n,r,e,i)),o}function X(t,n,r){var e,i=arguments.length>3&&void 0!==arguments[3]&&arguments[3];if(nt(n)){if(null!=(e=r).start&&!nt(e))return Z(n,r.start,r,t,i)}else if(nt(r)){if(n.end)return Z(n,n.end,r,t,i)}else{if(n.end)return r.start?W(n,n.end,r.start,r,t,i):Z(n,n.end,r,t,i);if(r.start)return Z(n,r.start,r,t,i)}return Q(n,r,t,i)}function tt(t,n,r){var e=X(t,n,r,!0);return e.a=function(t){return arguments.length>1&&void 0!==arguments[1]&&arguments[1]?t+Math.PI:t}(e.a)/h,e}function nt(t){return!t.type||"corner"===t.type}var rt=new N;var et={f:function(t){return t?t.join(" "):""},i:function(n,r,e){if(0===n)return r;if(1===n)return e;var i=r.length;if(i!==e.length)return y(n,r,e);for(var u,o=new Array(i),a=0;a<i;a++){if((u=t(r[a]))!==t(e[a]))return y(n,r,e);if("number"===u)o[a]=d(n,r[a],e[a]);else{if(r[a]!==e[a])return y(n,r,e);o[a]=r[a]}}return o}},it={f:null,i:x,u:function(t,n){return function(r){var e=n(r);t.setAttribute("x1",I(e[0])),t.setAttribute("y1",I(e[1])),t.setAttribute("x2",I(e[2])),t.setAttribute("y2",I(e[3]))}}},ut={f:I,i:d},ot={f:I,i:function(t,n,r){var e=d(t,n,r);return e<=0?0:e>=1?1:e}},at={f:E,i:function(t,n,r){var e,i,u,o=n.length,a=r.length;if(o!==a)if(0===o)n=k(o=a,0);else if(0===a)a=o,r=k(o,0);else{var l=(u=(e=o)*(i=a)/function(t,n){for(var r;n;)r=n,n=t%n,t=r;return t||1}(e,i))<0?-u:u;n=S(n,Math.floor(l/o)),r=S(r,Math.floor(l/a)),o=a=l}for(var f=[],s=0;s<o;s++)f.push(v(g(t,n[s],r[s]),6));return f}};function lt(t,n,r,e,i,u,o,a){return n=function(t,n,r){for(var e,i,u,o=t.length-1,a={},l=0;l<=o;l++)(e=t[l]).e&&(e.e=n(e.e)),e.v&&"g"===(i=e.v).t&&i.r&&(u=r.getElementById(i.r))&&(a[i.r]=u.querySelectorAll("stop"));return a}(t,e,a),function(e){var i,u=r(e,t,ft);return u?"c"===u.t?B(u.v):"g"===u.t?(n[u.r]&&function(t,n){for(var r=0,e=t.length;r<e;r++)t[r].setAttribute("stop-color",B(n[r]))}(n[u.r],u.v),(i=u.r)?"url(#"+i+")":"none"):"none":"none"}}function ft(t,n,r){if(0===t)return n;if(1===t)return r;if(n&&r){var e=n.t;if(e===r.t)switch(n.t){case"c":return{t:e,v:w(t,n.v,r.v)};case"g":if(n.r===r.r)return{t:e,v:A(t,n.v,r.v),r:n.r}}}return y(t,n,r)}var st={blur:p,brightness:g,contrast:g,"drop-shadow":function(t,n,r){return 0===t?n:1===t?r:{blur:p(t,n.blur,r.blur),offset:m(t,n.offset,r.offset),color:w(t,n.color,r.color)}},grayscale:g,"hue-rotate":d,invert:g,opacity:g,saturate:g,sepia:g};function ct(t,n,r){if(0===t)return n;if(1===t)return r;var e=n.length;if(e!==r.length)return y(t,n,r);for(var i,u=[],o=0;o<e;o++){if(n[o].type!==r[o].type)return n;if(!(i=st[n[o].type]))return y(t,n,r);u.push({type:n.type,value:i(t,n[o].value,r[o].value)})}return u}var vt={blur:function(t){return t?function(n){t.setAttribute("stdDeviation",F(n))}:null},brightness:function(t,n,r){return(t=yt(r,n))?function(n){n=I(n),t.map((function(t){return t.setAttribute("slope",n)}))}:null},contrast:function(t,n,r){return(t=yt(r,n))?function(n){var r=I((1-n)/2);n=I(n),t.map((function(t){t.setAttribute("slope",n),t.setAttribute("intercept",r)}))}:null},"drop-shadow":function(t,n,r){var e=r.getElementById(n+"-blur");if(!e)return null;var i=r.getElementById(n+"-offset");if(!i)return null;var u=r.getElementById(n+"-flood");return u?function(t){e.setAttribute("stdDeviation",F(t.blur)),i.setAttribute("dx",I(t.offset.x)),i.setAttribute("dy",I(t.offset.y)),u.setAttribute("flood-color",B(t.color))}:null},grayscale:function(t){return t?function(n){t.setAttribute("values",E(function(t){return[.2126+.7874*(t=1-t),.7152-.7152*t,.0722-.0722*t,0,0,.2126-.2126*t,.7152+.2848*t,.0722-.0722*t,0,0,.2126-.2126*t,.7152-.7152*t,.0722+.9278*t,0,0,0,0,0,1,0]}(n)))}:null},"hue-rotate":function(t){return t?function(n){return t.setAttribute("values",I(n))}:null},invert:function(t,n,r){return(t=yt(r,n))?function(n){n=I(n)+" "+I(1-n),t.map((function(t){return t.setAttribute("tableValues",n)}))}:null},opacity:function(t,n,r){return(t=r.getElementById(n+"-A"))?function(n){return t.setAttribute("tableValues","0 "+I(n))}:null},saturate:function(t){return t?function(n){return t.setAttribute("values",I(n))}:null},sepia:function(t){return t?function(n){return t.setAttribute("values",E(function(t){return[.393+.607*(t=1-t),.769-.769*t,.189-.189*t,0,0,.349-.349*t,.686+.314*t,.168-.168*t,0,0,.272-.272*t,.534-.534*t,.131+.869*t,0,0,0,0,0,1,0]}(n)))}:null}};var ht=["R","G","B"];function yt(t,n){var r=ht.map((function(r){return t.getElementById(n+"-"+r)||null}));return-1!==r.indexOf(null)?null:r}var dt={fill:lt,"fill-opacity":ot,stroke:lt,"stroke-opacity":ot,"stroke-width":ut,"stroke-dashoffset":{f:I,i:d},"stroke-dasharray":at,opacity:ot,transform:function(n,r,e,i){if(!(n=function(n,r){if(!n||"object"!==t(n))return null;var e=!1;for(var i in n)n.hasOwnProperty(i)&&(n[i]&&n[i].length?(n[i].forEach((function(t){t.e&&(t.e=r(t.e))})),e=!0):delete n[i]);return e?n:null}(n,i)))return null;var u=function(t,i,u){var o=arguments.length>3&&void 0!==arguments[3]?arguments[3]:null;return n[t]?e(i,n[t],u):r&&r[t]?r[t]:o};return r&&r.a&&n.o?function(t){var r=e(t,n.o,tt);return rt.recomposeSelf(r,u("r",t,d,0)+r.a,u("k",t,m),u("s",t,m),u("t",t,m)).toString()}:function(t){return rt.recomposeSelf(u("o",t,X,null),u("r",t,d,0),u("k",t,m),u("s",t,m),u("t",t,m)).toString()}},"#filter":function(t,n,r,e,i,u,o,a){if(!n.items||!t||!t.length)return null;var l=function(t,n){var r=(t=t.map((function(t){return t&&vt[t[0]]?(n.getElementById(t[1]),vt[t[0]](n.getElementById(t[1]),t[1],n)):null}))).length;return function(n){for(var e=0;e<r;e++)t[e]&&t[e](n[e].value)}}(n.items,a);return l?(t=function(t,n){return t.map((function(t){return t.e=n(t.e),t}))}(t,e),function(n){l(r(n,t,ct))}):null},"#line":it,points:{f:E,i:x},d:et,r:ut,"#size":q,"#radius":j,_:function(t,n){if(Array.isArray(t))for(var r=0;r<t.length;r++)this[t[r]]=n;else this[t]=n}},gt=function(){function t(r){n(this,t),this.list=r,this.length=r.length}return e(t,[{key:"setAttribute",value:function(t,n){for(var r=this.list,e=0;e<this.length;e++)r[e].setAttribute(t,n)}},{key:"removeAttribute",value:function(t){for(var n=this.list,r=0;r<this.length;r++)n[r].removeAttribute(t)}},{key:"style",value:function(t,n){for(var r=this.list,e=0;e<this.length;e++)r[e].style[t]=n}}]),t}(),mt=/-./g,pt=function(t,n){return n.toUpperCase()};function bt(t){return"function"==typeof t?t:y}function wt(t){return t?"function"==typeof t?t:Array.isArray(t)?function(t){var n=arguments.length>1&&void 0!==arguments[1]?arguments[1]:o;if(!Array.isArray(t))return n;switch(t.length){case 1:return c(t[0])||n;case 2:return c(t[0],t[1])||n;case 4:return l(t[0],t[1],t[2],t[3])||n}return n}(t,null):function(t,n){var r=arguments.length>2&&void 0!==arguments[2]?arguments[2]:o;switch(t){case"linear":return o;case"steps":return c(n.steps||1,n.jump||0)||r;case"bezier":case"cubic-bezier":return l(n.x1||0,n.y1||0,n.x2||0,n.y2||0)||r}return r}(t.type,t.value,null):null}function At(t,n,r){var e=arguments.length>3&&void 0!==arguments[3]&&arguments[3],i=n.length-1;if(t<=n[0].t)return e?[0,0,n[0].v]:n[0].v;if(t>=n[i].t)return e?[i,1,n[i].v]:n[i].v;var u,o=n[0],a=null;for(u=1;u<=i;u++){if(!(t>n[u].t)){a=n[u];break}o=n[u]}return null==a?e?[i,1,n[i].v]:n[i].v:o.t===a.t?e?[u,1,a.v]:a.v:(t=(t-o.t)/(a.t-o.t),o.e&&(t=o.e(t)),e?[u,t,r(t,o.v,a.v)]:r(t,o.v,a.v))}function xt(t,n){var r=arguments.length>2&&void 0!==arguments[2]?arguments[2]:null;return t&&t.length?"function"!=typeof n?null:("function"!=typeof r&&(r=null),function(e){var i=At(e,t,n);return null!=i&&r&&(i=r(i)),i}):null}function kt(t,n){return t.t-n.t}function St(n,r,e,i,u){var o,a="@"===e[0],l="#"===e[0],f=dt[e],s=y;switch(a?(o=e.substr(1),e=o.replace(mt,pt)):l&&(e=e.substr(1)),t(f)){case"function":if(s=f(i,u,At,wt,e,a,r,n),l)return s;break;case"string":s=xt(i,bt(f));break;case"object":if((s=xt(i,bt(f.i),f.f))&&"function"==typeof f.u)return f.u(r,s,e,a,n)}return s?function(t,n,r){if(arguments.length>3&&void 0!==arguments[3]&&arguments[3])return t instanceof gt?function(e){return t.style(n,r(e))}:function(e){return t.style[n]=r(e)};if(Array.isArray(n)){var e=n.length;return function(i){var u=r(i);if(null==u)for(var o=0;o<e;o++)t[o].removeAttribute(n);else for(var a=0;a<e;a++)t[a].setAttribute(n,u)}}return function(e){var i=r(e);null==i?t.removeAttribute(n):t.setAttribute(n,i)}}(r,e,s,a):null}function _t(n,r,e,i){if(!i||"object"!==t(i))return null;var u=null,o=null;return Array.isArray(i)?o=function(t){if(!t||!t.length)return null;for(var n=0;n<t.length;n++)t[n].e&&(t[n].e=wt(t[n].e));return t.sort(kt)}(i):(o=i.keys,u=i.data||null),o?St(n,r,e,o,u):null}function Mt(t,n,r){if(!r)return null;var e=[];for(var i in r)if(r.hasOwnProperty(i)){var u=_t(t,n,i,r[i]);u&&e.push(u)}return e.length?e:null}function It(t,n){if(!n.duration||n.duration<0)return null;var r=function(t,n){if(!n)return null;var r=[];if(Array.isArray(n))for(var e=n.length,i=0;i<e;i++){var u=n[i];if(2===u.length){var o=null;if("string"==typeof u[0])o=t.getElementById(u[0]);else if(Array.isArray(u[0])){o=[];for(var a=0;a<u[0].length;a++)if("string"==typeof u[0][a]){var l=t.getElementById(u[0][a]);l&&o.push(l)}o=o.length?1===o.length?o[0]:new gt(o):null}if(o){var f=Mt(t,o,u[1]);f&&(r=r.concat(f))}}}else for(var s in n)if(n.hasOwnProperty(s)){var c=t.getElementById(s);if(c){var v=Mt(t,c,n[s]);v&&(r=r.concat(v))}}return r.length?r:null}(t,n.elements);return r?function(t,n){var r=arguments.length>2&&void 0!==arguments[2]?arguments[2]:1/0,e=arguments.length>3&&void 0!==arguments[3]?arguments[3]:1,i=arguments.length>4&&void 0!==arguments[4]&&arguments[4],u=arguments.length>5&&void 0!==arguments[5]?arguments[5]:1,o=t.length,a=e>0?n:0;i&&r%2==0&&(a=n-a);var l=null;return function(f,s){var c=f%n,v=1+(f-c)/n;s*=e,i&&v%2==0&&(s=-s);var h=!1;if(v>r)c=a,h=!0,-1===u&&(c=e>0?0:n);else if(s<0&&(c=n-c),c===l)return!1;l=c;for(var y=0;y<o;y++)t[y](c);return h}}(r,n.duration,n.iterations||1/0,n.direction||1,!!n.alternate,n.fill||1):null}var Et=function(){function t(r){var e=arguments.length>1&&void 0!==arguments[1]?arguments[1]:{};n(this,t),this._id=0,this._running=!1,this._animations=r,this.direction=e.direction||1,this.speed=e.speed||1,this.fps=e.fps||100,this.offset=e.offset||0}return e(t,[{key:"_start",value:function(){var t=this,n=arguments.length>0&&void 0!==arguments[0]?arguments[0]:0,r=-1/0,e=null,i={},u=function u(o){t._running=!0,null==e&&(e=o);var a=Math.round((o-e+n)*t.speed),l=t.fps?1e3/t.fps:0;if(a>r+l){t.offset=a,r=a;for(var f=t._animations,s=f.length,c=0,v=0;v<s;v++)i[v]?c++:(i[v]=f[v](a,t.direction),i[v]&&c++);if(c===s)return void t._stop()}t._id=window.requestAnimationFrame(u)};this._id=window.requestAnimationFrame(u)}},{key:"_stop",value:function(){this._id&&window.cancelAnimationFrame(this._id),this._running=!1}},{key:"play",value:function(){this._running||this._start(this.offset)}},{key:"stop",value:function(){this._stop(),this.offset=0;var t=this.direction,n=this._animations;requestAnimationFrame((function(){for(var r=0;r<n.length;r++)n[r](0,t)}))}},{key:"restart",value:function(){this._stop(),this.offset=0,this._start()}},{key:"pause",value:function(){this._stop()}},{key:"reverse",value:function(){this.direction=-this.direction}}],[{key:"build",value:function(n){if(!(n=function(t){if(!t||!t.root||!Array.isArray(t.animations))return null;var n=window.document.getElementById(t.root);if(!n)return null;var r=t.animations.map((function(t){return It(n,t)})).filter((function(t){return!!t}));return r.length?{element:n,animations:r,options:t.options||void 0}:null}(n)))return null;var r=n.element,e=n.options||{},i=new t(n.animations,n.options);return function(t,n,r){var e=arguments.length>3&&void 0!==arguments[3]?arguments[3]:null;if("click"===r){return void n.addEventListener("click",(function r(){n.removeEventListener("click",r),t.play()}))}if("hover"===r)return n.addEventListener("mouseenter",(function(){return t.play()})),void n.addEventListener("mouseleave","freeze"===e?function(){return t.pause()}:function(){return t.stop()});t.play()}(i,r,e.start,e.hover),i}}]),t}();return function(){for(var t=0,n=["ms","moz","webkit","o"],r=0;r<n.length&&!window.requestAnimationFrame;++r)window.requestAnimationFrame=window[n[r]+"RequestAnimationFrame"],window.cancelAnimationFrame=window[n[r]+"CancelAnimationFrame"]||window[n[r]+"CancelRequestAnimationFrame"];window.requestAnimationFrame||(window.requestAnimationFrame=function(n){var r=Date.now(),e=Math.max(0,16-(r-t)),i=window.setTimeout((function(){n(r+e)}),e);return t=r+e,i},window.cancelAnimationFrame=window.clearTimeout)}(),Et}));
__SVGATOR_PLAYER__.build({"root":"evgurter4hug1","animations":[{"duration":6000,"direction":1,"iterations":0,"fill":-1,"alternate":false,"elements":{"evgurter4hug47":{"transform":{"keys":{"r":[{"t":0,"v":0},{"t":3000,"v":-3},{"t":6000,"v":0}]}}},"evgurter4hug52":{"transform":{"keys":{"r":[{"t":0,"v":0},{"t":3000,"v":-20},{"t":6000,"v":0}]}}},"evgurter4hug55":{"transform":{"keys":{"r":[{"t":0,"v":0},{"t":3000,"v":4},{"t":6000,"v":0}]}}},"evgurter4hug59":{"transform":{"keys":{"r":[{"t":0,"v":0},{"t":3000,"v":8},{"t":6000,"v":0}]}}},"evgurter4hug62":{"transform":{"data":{"o":{"x":-4.999982650133461e-9,"y":0.4443078299999712,"type":"corner"},"t":{"x":54,"y":56}},"keys":{"r":[{"t":0,"v":0},{"t":3000,"v":5},{"t":6000,"v":0}]}}},"evgurter4hug63":{"transform":{"keys":{"r":[{"t":0,"v":0},{"t":3000,"v":6},{"t":6000,"v":0}]}}},"evgurter4hug72":{"transform":{"data":{"o":{"x":-2.3685000050000005,"y":-3.3685,"type":"corner"},"t":{"x":8.184303857499998,"y":8.184303857499998}},"keys":{"r":[{"t":0,"v":0},{"t":3000,"v":10},{"t":6000,"v":0}]}}}}}],"options":{"start":"load","hover":"freeze"}})]]></script></svg>