<svg width="368" height="186" viewBox="0 0 368 186" fill="none" xmlns="http://www.w3.org/2000/svg">
<path d="M256.017 32.9519L90.5771 93.1439C73.9643 99.1881 65.3969 117.555 71.4411 134.168C77.4853 150.781 95.8523 159.348 112.465 153.304L277.905 93.1119C294.518 87.0677 303.085 68.7006 297.041 52.0879C290.997 35.4752 272.63 26.9077 256.017 32.9519Z" fill="#C4F236"/>
<path d="M285.792 60.9676L120.4 121.2C112.426 124.1 103.626 123.714 95.9353 120.127C88.2451 116.54 82.2945 110.046 79.3922 102.072C79.1922 101.536 79.1442 101 78.9762 100.472C73.7958 105.599 70.524 112.343 69.7036 119.585C68.8832 126.827 70.5635 134.132 74.4657 140.288C78.368 146.444 84.2576 151.081 91.1575 153.43C98.0574 155.778 105.553 155.697 112.4 153.2L277.792 92.9996C285.478 90.1873 291.79 84.5313 295.425 77.1993C299.061 69.8674 299.742 61.4194 297.328 53.5996C294.065 56.8659 290.128 59.3804 285.792 60.9676V60.9676Z" fill="#A1D51C"/>
<path d="M368 60.136L337.928 71.08C333.979 72.5174 329.786 73.1628 325.587 72.9795C321.388 72.7961 317.267 71.7875 313.458 70.0113C309.65 68.235 306.228 65.726 303.389 62.6273C300.55 59.5287 298.349 55.9012 296.912 51.952C294.012 43.9774 294.397 35.1773 297.985 27.4871C301.572 19.7969 308.066 13.8463 316.04 10.944L346.112 0L334.504 38.272L368 60.136Z" fill="#C4F236"/>
<path d="M22.1921 186L52.2641 175.056C56.2134 173.619 59.8408 171.419 62.9395 168.58C66.0381 165.741 68.5472 162.319 70.3234 158.51C72.0996 154.702 73.1082 150.58 73.2916 146.382C73.475 142.183 72.8295 137.99 71.3921 134.04C68.4897 126.07 62.5417 119.579 54.8552 115.992C47.1688 112.405 38.3727 112.017 30.4001 114.912L0.328125 125.856L33.8241 147.72L22.1921 186Z" fill="#A1D51C"/>
<path d="M125.704 148.321L138.504 75.5205L103.776 88.1605L92.2402 153.617C98.8268 155.673 105.904 155.527 112.4 153.201L125.704 148.321Z" fill="#F8664F"/>
<path d="M173.264 62.9044L160.432 135.688L195.152 123.048L207.984 50.2725L173.264 62.9044Z" fill="#F8664F"/>
<path d="M255.904 32.8322L242.704 37.6322L229.904 110.432L264.632 97.8002L276.128 32.4002C269.521 30.3326 262.418 30.4843 255.904 32.8322V32.8322Z" fill="#F8664F"/>
<path d="M337.928 47.0802C330.155 49.8998 321.591 49.5944 314.038 46.2284C306.485 42.8623 300.532 36.6979 297.432 29.0322C295.076 34.7571 294.438 41.0439 295.596 47.1252C296.754 53.2065 299.657 58.8192 303.951 63.2781C308.246 67.737 313.745 70.8492 319.779 72.2347C325.812 73.6202 332.119 73.219 337.928 71.0802L368 60.1362L344.392 44.7282L337.928 47.0802Z" fill="#A1D51C"/>
<path d="M71.3919 134.04C68.9714 127.439 64.4397 121.822 58.5001 118.061C52.5605 114.3 45.5455 112.605 38.5439 113.24C42.7142 116.887 45.8577 121.561 47.6622 126.799C49.4666 132.037 49.8691 137.656 48.8298 143.098C47.7905 148.539 45.3455 153.615 41.7376 157.819C38.1298 162.023 33.4847 165.21 28.2639 167.064L27.8959 167.192L22.1919 186L52.2639 175.056C56.2131 173.619 59.8406 171.418 62.9392 168.579C66.0379 165.74 68.5469 162.318 70.3232 158.509C72.0994 154.701 73.108 150.579 73.2914 146.381C73.4747 142.182 72.8293 137.989 71.3919 134.04V134.04Z" fill="#7AB92D"/>
<path d="M98.0563 120.848L92.2803 153.648C98.8579 155.686 105.92 155.529 112.4 153.2L125.704 148.352L131.192 117.272L120.4 121.2C113.157 123.8 105.215 123.675 98.0563 120.848V120.848Z" fill="#CC5144"/>
<path d="M160.432 135.688L195.152 123.048L200.632 91.9678L165.912 104.6L160.432 135.688Z" fill="#CC5144"/>
<path d="M229.872 110.408L264.6 97.7755L270.08 66.6875L235.352 79.3275L229.872 110.408Z" fill="#CC5144"/>
</svg>
