<svg width="33" height="32" viewBox="0 0 33 32" fill="none" xmlns="http://www.w3.org/2000/svg">
<path d="M16.083 32C24.9196 32 32.083 24.8366 32.083 16C32.083 7.16344 24.9196 0 16.083 0C7.24645 0 0.0830078 7.16344 0.0830078 16C0.0830078 24.8366 7.24645 32 16.083 32Z" fill="#C4F236"/>
<path d="M16.0828 8.00021C16.098 5.2671 16.823 2.58482 18.1868 0.216214C17.4913 0.0955752 16.7883 0.0234018 16.0828 0.000214151C13.2602 -0.0143876 10.484 0.717959 8.0359 2.12293C5.5878 3.52791 3.55494 5.5555 2.14362 7.99995C0.732308 10.4444 -0.00723149 13.2187 5.33025e-05 16.0413C0.00733809 18.8639 0.761191 21.6343 2.1851 24.0715C3.60902 26.5086 5.65231 28.5257 8.10763 29.918C10.5629 31.3103 13.3429 32.0283 16.1654 31.9991C18.9878 31.97 21.7523 31.1947 24.1784 29.7519C26.6044 28.3091 28.6055 26.2503 29.9788 23.7842C26.1417 23.2872 22.6163 21.412 20.0597 18.5079C17.503 15.6039 16.0895 11.8693 16.0828 8.00021Z" fill="#A1D51C"/>
</svg>
