<svg width="49" height="48" viewBox="0 0 49 48" fill="none" xmlns="http://www.w3.org/2000/svg">
<path d="M24.083 48C37.3378 48 48.083 37.2548 48.083 24C48.083 10.7452 37.3378 0 24.083 0C10.8282 0 0.0830078 10.7452 0.0830078 24C0.0830078 37.2548 10.8282 48 24.083 48Z" fill="#F8664F"/>
<path d="M40.0014 31.88C36.2479 31.931 32.536 31.0889 29.1719 29.4232C25.8078 27.7574 22.8879 25.3157 20.6531 22.2995C18.4183 19.2833 16.9326 15.779 16.3186 12.0757C15.7045 8.37234 15.9797 4.57607 17.1214 1C13.146 2.18067 9.54547 4.37396 6.67278 7.36494C3.80008 10.3559 1.75378 14.0419 0.734391 18.0618C-0.284997 22.0816 -0.242479 26.2974 0.857773 30.2958C1.95802 34.2943 4.07826 37.9383 7.0107 40.8708C9.94313 43.8032 13.5871 45.9234 17.5856 47.0237C21.5841 48.1239 25.7998 48.1665 29.8197 47.1471C33.8395 46.1277 37.5255 44.0814 40.5165 41.2087C43.5075 38.336 45.7008 34.7355 46.8815 30.76C44.6553 31.4681 42.3372 31.8454 40.0014 31.88Z" fill="#CC5144"/>
</svg>
