<svg width="334" height="225" viewBox="0 0 334 225" fill="none" xmlns="http://www.w3.org/2000/svg">
<path d="M154.824 123.712L194.256 64C206.496 45.4591 222.885 30.023 242.125 18.9144C261.365 7.80586 282.927 1.33006 305.104 0L278.464 33.856L333.104 48.496C330.649 57.6571 325.024 65.6504 317.229 71.0543C309.435 76.4581 299.977 78.9221 290.536 78.008C267.834 75.8062 244.965 79.9145 224.448 89.88L154.824 123.712Z" fill="#F89C8D"/>
<path d="M231.136 36.3282C229.737 33.8462 228.543 31.2535 227.568 28.5762C214.526 38.3987 203.26 50.3794 194.256 64.0002L154.824 123.712L224.424 89.8802C244.941 79.9146 267.81 75.8064 290.512 78.0082C299.288 78.8391 308.093 76.7477 315.558 72.0589C323.023 67.3701 328.73 60.3467 331.792 52.0802C293.656 73.7442 248.712 66.7682 231.136 36.3282V36.3282Z" fill="#F8664F"/>
<path d="M178.272 100.328L138.848 160.04C126.608 178.581 110.219 194.017 90.9792 205.126C71.7392 216.234 50.1768 222.71 28 224.04L54.64 190.184L0 175.544C2.45381 166.382 8.07854 158.388 15.8733 152.984C23.6682 147.58 33.1274 145.116 42.568 146.032C65.2683 148.231 88.1351 144.12 108.648 134.152L178.272 100.328Z" fill="#F8664F"/>
<path d="M108.648 134.152C102.416 137.157 95.9429 139.633 89.296 141.552C86.4517 154.757 88.5285 168.547 95.136 180.328C95.984 181.8 96.96 183.168 97.928 184.528C73.08 185.728 50.44 175.904 39.136 156.328C37.2972 153.086 35.8114 149.655 34.704 146.096C26.6119 146.895 18.9555 150.142 12.7553 155.403C6.55517 160.664 2.10572 167.69 0 175.544L54.64 190.184L28 224.04C50.1768 222.71 71.7392 216.234 90.9792 205.126C110.219 194.017 126.608 178.581 138.848 160.04L178.272 100.328L108.648 134.152Z" fill="#CC5144"/>
<path d="M196.408 163.748C234.671 141.657 251.362 98.9337 233.688 68.3239C216.015 37.7141 170.671 30.8085 132.408 52.8999C94.1461 74.9913 77.4553 117.714 95.1284 148.324C112.802 178.934 158.146 185.839 196.408 163.748Z" fill="#F89C8D"/>
<path d="M165.104 71.9998C168.909 72.0478 172.669 71.1792 176.067 69.4674C179.465 67.7555 182.401 65.2508 184.627 62.1649C186.853 59.079 188.303 55.5026 188.856 51.738C189.408 47.9733 189.046 44.131 187.8 40.5358C171.821 38.9441 155.708 41.6826 141.152 48.4638C141.273 54.74 143.849 60.7188 148.326 65.1184C152.804 69.5181 158.827 71.9885 165.104 71.9998V71.9998Z" fill="#F9E109"/>
<path d="M212.416 115.752C174.152 137.84 128.808 130.952 111.136 100.328C107.125 93.3035 104.785 85.4501 104.296 77.376C87.2958 99.464 82.7438 126.864 95.1358 148.328C112.808 178.936 158.152 185.84 196.416 163.752C225.776 146.808 242.36 117.728 240.544 91.28C232.857 101.197 223.301 109.511 212.416 115.752V115.752Z" fill="#F8664F"/>
<path d="M218.944 145.848C221.362 140.721 221.942 134.918 220.587 129.413C219.231 123.909 216.023 119.039 211.5 115.621C206.978 112.203 201.417 110.446 195.752 110.644C190.086 110.842 184.662 112.984 180.389 116.71C176.117 120.435 173.257 125.518 172.289 131.103C171.322 136.689 172.306 142.437 175.076 147.383C177.847 152.328 182.235 156.17 187.503 158.262C192.771 160.354 198.6 160.569 204.008 158.872C209.423 155.058 214.429 150.694 218.944 145.848Z" fill="#F9E109"/>
<path d="M109.104 128C115.469 128 121.574 125.471 126.075 120.971C130.576 116.47 133.104 110.365 133.104 104C133.104 97.6348 130.576 91.5303 126.075 87.0294C121.574 82.5286 115.469 80 109.104 80C106.486 80.0293 103.891 80.4916 101.424 81.368C94.2181 91.5957 89.7334 103.489 88.3921 115.928C90.4751 119.586 93.4876 122.629 97.1247 124.749C100.762 126.869 104.894 127.991 109.104 128Z" fill="#F9E109"/>
<path d="M173.104 136C173.053 139.755 173.896 143.469 175.563 146.835C177.231 150.2 179.675 153.121 182.694 155.355C185.714 157.59 189.221 159.074 192.927 159.685C196.633 160.297 200.431 160.018 204.008 158.872C209.423 155.058 214.428 150.693 218.944 145.848C221.257 140.798 221.729 135.097 220.277 129.736C218.826 124.374 215.544 119.69 211 116.496C199.755 122.828 187.342 126.81 174.512 128.2C173.61 130.703 173.134 133.339 173.104 136V136Z" fill="#FCBC04"/>
<path d="M111.136 100.328C107.65 94.2327 105.425 87.4995 104.592 80.5278C103.511 80.734 102.443 81.0011 101.392 81.3278C94.1859 91.5555 89.7012 103.449 88.3599 115.888C90.3209 119.348 93.1176 122.262 96.4946 124.364C99.8717 126.465 103.721 127.687 107.692 127.918C111.663 128.149 115.628 127.381 119.226 125.685C122.824 123.988 125.939 121.418 128.288 118.208C121.235 113.69 115.357 107.562 111.136 100.328V100.328Z" fill="#FCBC04"/>
</svg>
