<svg width="33" height="33" viewBox="0 0 33 33" fill="none" xmlns="http://www.w3.org/2000/svg">
<path d="M16.083 32C24.9196 32 32.083 24.8366 32.083 16C32.083 7.16344 24.9196 0 16.083 0C7.24645 0 0.0830078 7.16344 0.0830078 16C0.0830078 24.8366 7.24645 32 16.083 32Z" fill="#F9E109"/>
<path d="M24.0828 24.0004C21.408 24.0115 18.7735 23.3491 16.422 22.0744C14.0705 20.7996 12.0777 18.9535 10.6273 16.7061C9.17683 14.4587 8.31541 11.8823 8.12239 9.21452C7.92938 6.54669 8.41098 3.8732 9.52281 1.44043C7.15017 2.49522 5.06989 4.1116 3.46153 6.15003C1.85318 8.18847 0.765077 10.5877 0.291186 13.1406C-0.182706 15.6936 -0.0281333 18.3235 0.741503 20.8033C1.51114 23.2832 2.87273 25.5385 4.70876 27.3745C6.54479 29.2105 8.80007 30.5721 11.2799 31.3418C13.7598 32.1114 16.3897 32.2659 18.9426 31.792C21.4955 31.3182 23.8948 30.2301 25.9332 28.6217C27.9716 27.0134 29.588 24.9331 30.6428 22.5604C28.5834 23.5015 26.347 23.9924 24.0828 24.0004Z" fill="#FCBC04"/>
</svg>
